<svg xmlns="http://www.w3.org/2000/svg" viewBox="0 0 1600 1600"><defs><style>.cls-1{fill:#0072b3;}.cls-2{fill:#bcc1c2;}</style></defs><g id="Layer_2" data-name="Layer 2"><path class="cls-1" d="M287.88,568.5h35.48L394,752.27H357.68L343.3,714.42h-75l-14.95,37.85H217Zm18,48.72-24.66,63.09h49.17Z"/><path class="cls-1" d="M386.72,568.5h36l46.24,130.55L515.83,568.5h35.92L485.53,752.27H451.8Z"/><path class="cls-1" d="M615.29,568.5h35.48l70.68,183.77H685.1l-14.38-37.85h-75l-15,37.85H544.43Zm18,48.72-24.66,63.09h49.17Z"/><path class="cls-1" d="M745.62,568.5h33.56l78.63,120.93V568.5h35V752.27H859.14L780.6,631.71V752.27h-35Z"/><path class="cls-1" d="M1103.67,600.8l-24.47,23.32q-25-26.39-56.17-26.39-26.32,0-44.37,18t-18,44.4q0,18.38,8,32.63a57.3,57.3,0,0,0,22.59,22.39,65.61,65.61,0,0,0,32.46,8.13,66.91,66.91,0,0,0,27.83-5.69q12.62-5.7,27.71-20.7l23.72,24.75q-20.37,19.88-38.48,27.56t-41.35,7.68q-42.86,0-70.15-27.17t-27.3-69.65q0-27.48,12.44-48.84t35.6-34.36a100.41,100.41,0,0,1,49.91-13,105.88,105.88,0,0,1,80.08,36.92Z"/><path class="cls-1" d="M1136.4,568.5h100.32v34.23h-65.59V636h65.59v33.61h-65.59v48.35h65.59v34.35H1136.4Z"/><path class="cls-1" d="M1277.45,568.5h100.32v34.23h-65.59V636h65.59v33.61h-65.59v48.35h65.59v34.35H1277.45Z"/><path class="cls-2" d="M448.14,828.94,422.23,851.8q-13.65-19-27.78-19-6.88,0-11.27,3.69t-4.38,8.3a14.26,14.26,0,0,0,3.13,8.75q4.26,5.51,25.66,23.61,20,16.74,24.27,21.11Q442.5,909,446.94,918.82a51.36,51.36,0,0,1,4.45,21.43q0,22.62-15.64,37.35T395,992.35q-19.64,0-34.2-9.62t-24.95-30.24l29.4-17.74q13.26,24.36,30.53,24.36a22.48,22.48,0,0,0,15.14-5.24q6.14-5.25,6.13-12.12,0-6.24-4.63-12.49T392,910.14q-30-24.48-38.79-37.79t-8.76-26.55q0-19.11,14.57-32.79t36-13.68a56.68,56.68,0,0,1,26.2,6.37Q433.63,812.08,448.14,828.94Z"/><path class="cls-2" d="M537,848.3a72.09,72.09,0,0,1,36.17,9.62,70.52,70.52,0,0,1,35.91,61.72,71.41,71.41,0,0,1-9.55,36,69,69,0,0,1-26,26.17,71.89,71.89,0,0,1-36.35,9.43q-29.24,0-49.91-20.8t-20.68-50.53q0-31.86,23.36-53.1Q510.39,848.31,537,848.3Zm.56,32.11q-15.88,0-26.46,11.06t-10.58,28.29q0,17.75,10.45,28.74t26.47,11q16,0,26.65-11.12t10.64-28.61q0-17.49-10.45-28.42T537.56,880.41Z"/><path class="cls-2" d="M622.44,851.8h12.12q.12-26.73.88-31.61,1.37-11.24,9.43-17.8t22.8-6.56q10.62,0,24,4.87v26a45.48,45.48,0,0,0-12.11-2.12q-6,0-8.75,2.49c-1.33,1.25-2,3.84-2,7.75l-.12,17h21.61v28.86H668.67V987.72H634.56V880.66H622.44Z"/><path class="cls-2" d="M714.39,801.7H748.5v50.1h20.23v29.36H748.5V987.72H714.39V881.16H696.9V851.8h17.49Z"/><path class="cls-2" d="M784.1,851.8h33.39l27.33,77.33,29.41-77.33h20.42l28.87,76.46,27.37-76.46h33.6l-49.6,135.92H913.28l-29-77.45-29.86,77.45H833.08Z"/><path class="cls-2" d="M1096.28,851.8h34.1V987.72h-34.1V973.36q-10,9.5-20,13.68a56.27,56.27,0,0,1-21.78,4.18q-26.33,0-45.54-20.43T989.71,920q0-31.49,18.6-51.59t45.17-20.12a57.22,57.22,0,0,1,23,4.63,62.69,62.69,0,0,1,19.85,13.86Zm-35.86,28q-15.81,0-26.27,11.19t-10.46,28.67q0,17.61,10.65,29A34.49,34.49,0,0,0,1060.55,960q16.07,0,26.64-11.18t10.59-29.3q0-17.73-10.59-28.73T1060.42,879.78Z"/><path class="cls-2" d="M1156.87,851.8h29.23v17.12q4.74-10.12,12.62-15.37A30.43,30.43,0,0,1,1216,848.3a32,32,0,0,1,13.87,3.5l-10.62,29.36q-6-3-9.87-3-7.87,0-13.31,9.75t-5.43,38.22l.12,6.62v55h-33.85Z"/><path class="cls-2" d="M1382.86,929.63H1273.3q2.37,14.49,12.68,23t26.3,8.56a45.47,45.47,0,0,0,32.85-13.37l28.74,13.49q-10.75,15.24-25.74,22.55t-35.6,7.31q-32,0-52.1-20.18t-20.11-50.53q0-31.11,20-51.66t50.28-20.55q32.11,0,52.22,20.55T1383,923.13Zm-34.1-26.86a34.28,34.28,0,0,0-13.33-18.49,38.62,38.62,0,0,0-23.09-7.12,40.85,40.85,0,0,0-25,8q-6.75,5-12.51,17.61Z"/></g></svg>