<svg width="178" height="108" viewBox="0 0 178 108" fill="none" xmlns="http://www.w3.org/2000/svg">
<path fill-rule="evenodd" clip-rule="evenodd" d="M20.6431 79.9576C20.9542 80.3528 21.1265 80.8929 21.1265 81.3613C21.1265 82.6556 20.0562 83.6633 18.7789 83.6633C18.1233 83.6633 17.4669 83.3759 16.9843 82.8358C15.6723 81.3967 13.9803 80.5331 12.2552 80.5331C8.0782 80.5331 5.04028 83.8797 5.04028 88.4128C5.04028 92.9459 8.0782 96.2926 12.2552 96.2926C13.9803 96.2926 15.707 95.5006 16.9843 94.0253C17.4669 93.486 18.1573 93.1978 18.8484 93.1978C20.0909 93.1978 21.0917 94.2055 21.0917 95.4282C21.0917 95.9328 20.9542 96.4367 20.6083 96.8319C18.8824 99.0268 16.2244 100.826 12.2552 100.826C5.35073 100.826 0 95.7887 0 88.4128C0 81.0362 5.35073 76 12.2552 76C16.2244 76 18.8824 77.7627 20.6431 79.9576ZM26.2812 100.897C25.0727 100.897 24.1066 99.8896 24.1066 98.63V85.3181C24.1066 84.0947 25.0727 83.087 26.3499 83.087C27.5237 83.087 28.4905 84.0947 28.4905 85.3181V98.63C28.4905 99.8896 27.5237 100.897 26.2812 100.897ZM28.9044 78.698C28.9044 80.2087 27.7314 81.4322 26.2812 81.4322C24.8657 81.4322 23.6572 80.2087 23.6572 78.698C23.6572 77.1872 24.8657 76 26.2812 76C27.7314 76 28.9044 77.1872 28.9044 78.698ZM38.0502 101.087C34.9783 101.087 33.3211 99.432 33.3211 96.3373V87.2703H32.2508C31.2152 87.2703 30.3526 86.3713 30.3526 85.2195C30.3526 84.1764 31.2152 83.2765 32.2508 83.2765H33.3211V80.5785C33.3211 79.3189 34.2871 78.3112 35.5644 78.3112C36.7729 78.3112 37.7397 79.3189 37.7397 80.5785V83.2765H39.4657C40.4665 83.2765 41.3298 84.1764 41.3298 85.2911C41.3298 86.3713 40.4665 87.2703 39.4657 87.2703H37.7397V95.1139C37.7397 96.4813 38.5676 97.0206 39.2587 97.0206H39.6379C40.8804 97.0206 41.5715 97.885 41.5715 98.9998C41.5715 100.151 40.9151 101.087 38.0502 101.087ZM59.0862 86.1803L52.3547 103.558C51.1809 106.581 49.0751 107.769 46.6241 107.769C45.1051 107.769 43.9321 106.977 43.9321 105.717C43.9321 104.639 44.7607 103.703 46.0032 103.703C46.1754 103.703 46.3824 103.703 46.5553 103.667C47.2804 103.523 47.9013 103.163 48.2125 102.443L48.8334 100.968L43.1382 86.1449C43.034 85.8922 43 85.6411 43 85.3891C43 84.2743 43.8633 83.1226 45.2093 83.1226C46.0727 83.1226 46.9005 83.6981 47.2457 84.6334L51.1122 95.4276L54.978 84.6334C55.2892 83.7335 56.1517 83.1226 57.0838 83.1226C58.3958 83.1226 59.2244 84.2374 59.2244 85.3529C59.2244 85.6411 59.1897 85.9292 59.0862 86.1803ZM84.0025 100.96C82.794 100.96 81.828 99.952 81.828 98.6924V89.7695C81.828 88.1509 81.1376 86.9999 79.3429 86.9999C77.7892 86.9999 76.512 88.0793 75.8903 89.0145V98.6924C75.8903 99.952 74.9243 100.96 73.647 100.96C72.4385 100.96 71.4717 99.952 71.4717 98.6924V89.7695C71.4717 88.1509 70.7821 86.9999 68.9859 86.9999C67.4677 86.9999 66.1904 88.0793 65.5348 89.0507V98.6924C65.5348 99.952 64.568 100.96 63.3255 100.96C62.1177 100.96 61.1516 99.952 61.1516 98.6924V85.3805C61.1516 84.1571 62.1177 83.1494 63.395 83.1494C64.568 83.1494 65.5348 84.1571 65.5348 85.3805V85.6324C66.2259 84.5893 68.4345 82.9337 70.989 82.9337C73.44 82.9337 74.993 84.1209 75.6139 86.1001C76.5807 84.5176 78.79 82.9337 81.3446 82.9337C84.4172 82.9337 86.2466 84.6247 86.2466 88.1871V98.6924C86.2466 99.952 85.2798 100.96 84.0025 100.96ZM99.9075 94.4112C99.1831 93.4035 97.8016 92.8997 96.3869 92.8997C94.6602 92.8997 93.2448 93.835 93.2448 95.5268C93.2448 97.1462 94.6602 98.0807 96.3869 98.0807C97.8016 98.0807 99.1831 97.5769 99.9075 96.5699V94.4112ZM102.151 100.96H101.806C101.461 100.96 99.9075 100.672 99.9075 98.9443C98.7684 100.348 96.8001 101.175 94.6262 101.175C91.9682 101.175 88.8261 99.3049 88.8261 95.4182C88.8261 91.3527 91.9682 89.8057 94.6262 89.8057C96.8356 89.8057 98.8024 90.5615 99.9075 91.9282V89.59C99.9075 87.8266 98.458 86.6756 96.2487 86.6756C94.9367 86.6756 93.6594 86.9991 92.5196 87.7911C92.2787 87.9352 92.0022 88.0423 91.7258 88.0423C90.9319 88.0423 90.0694 87.3589 90.0694 86.2796C90.0694 85.956 90.1728 85.6324 90.3111 85.3797C91.3466 83.6532 95.0749 82.9337 97.0078 82.9337C100.806 82.9337 104.292 84.5169 104.292 89.5176V98.6924C104.292 99.9513 103.325 100.96 102.151 100.96ZM116.612 86.9999C115.197 86.9999 113.574 87.8635 112.849 88.9791V95.1308C113.574 96.2109 115.197 97.11 116.612 97.11C119.132 97.11 120.823 95.0592 120.823 92.0368C120.823 89.0507 119.132 86.9999 116.612 86.9999ZM117.993 101.176C116.025 101.176 114.196 100.312 112.849 98.5137V105.35C112.849 106.572 111.882 107.58 110.64 107.58C109.432 107.58 108.466 106.572 108.466 105.35V85.3805C108.466 84.1579 109.432 83.1502 110.709 83.1502C111.882 83.1502 112.849 84.1579 112.849 85.3805V85.5608C114.126 83.8697 115.957 82.9337 117.993 82.9337C122.273 82.9337 125.38 86.2449 125.38 92.0368C125.38 97.8296 122.273 101.176 117.993 101.176ZM136.252 86.9999C134.837 86.9999 133.214 87.8635 132.489 88.9791V95.1308C133.214 96.2109 134.837 97.11 136.252 97.11C138.772 97.11 140.464 95.0592 140.464 92.0368C140.464 89.0507 138.772 86.9999 136.252 86.9999ZM137.633 101.176C135.665 101.176 133.836 100.312 132.489 98.5137V105.35C132.489 106.572 131.522 107.58 130.28 107.58C129.072 107.58 128.106 106.572 128.106 105.35V85.3805C128.106 84.1579 129.072 83.1502 130.349 83.1502C131.522 83.1502 132.489 84.1579 132.489 85.3805V85.5608C133.766 83.8697 135.597 82.9337 137.633 82.9337C141.913 82.9337 145.02 86.2449 145.02 92.0368C145.02 97.8296 141.913 101.176 137.633 101.176ZM155.483 86.5677C152.755 86.5677 151.582 88.691 151.375 90.4174H159.59C159.487 88.7626 158.382 86.5677 155.483 86.5677ZM161.73 93.5122H151.444C151.72 95.7063 153.412 97.5414 156.242 97.5414C157.174 97.5414 158.451 97.2541 159.487 96.6778C159.763 96.5337 160.074 96.4621 160.35 96.4621C161.282 96.4621 162.214 97.2178 162.214 98.2972C162.214 100.348 157.968 101.175 155.759 101.175C150.684 101.175 146.853 97.6138 146.853 92.0368C146.853 86.9999 150.408 82.9337 155.483 82.9337C159.245 82.9337 162.111 85.201 163.284 88.798C163.526 89.59 163.767 90.5615 163.767 91.4251C163.767 92.5407 162.869 93.5122 161.73 93.5122ZM174.294 87.2156C172.948 87.3951 171.671 87.9706 170.877 89.05V98.4767C170.877 99.7355 169.91 100.744 168.736 100.744H168.668C167.459 100.744 166.493 99.7355 166.493 98.4767V85.164C166.493 83.9414 167.459 82.9337 168.736 82.9337C169.91 82.9337 170.877 83.9414 170.877 85.164V85.5246C171.706 84.3736 172.81 83.0053 174.466 83.0053C175.744 83.0053 176.4 83.8328 176.4 84.8767C176.4 86.2441 175.503 87.0353 174.294 87.2156Z" fill="#37AB2F"/>
<circle cx="89" cy="33" r="33" fill="#37AB2F"/>
<path fill-rule="evenodd" clip-rule="evenodd" d="M87.7301 26.9517C86.7766 25.9919 86.7766 24.4362 87.7301 23.4757C88.6834 22.5162 90.2281 22.5162 91.182 23.4757L98.917 31.262C99.8706 32.2218 99.8706 33.7776 98.9171 34.7374L91.1817 42.5246C90.7178 42.9908 90.0984 43.2439 89.4561 43.2439C88.813 43.2439 88.193 42.9909 87.7301 42.5243C86.7766 41.5645 86.7766 40.0081 87.7301 39.0483L91.3127 35.4418L80.0618 35.4576C78.7138 35.4576 77.6207 34.3572 77.6207 33C77.6207 31.6424 78.7136 30.5424 80.0618 30.5424L91.4463 30.5322L87.7301 26.9517ZM70.9611 35.981C72.5964 35.981 73.9222 34.6465 73.9222 33C73.9222 31.3535 72.5964 30.019 70.9611 30.019C69.3258 30.019 68 31.3535 68 33C68 34.6465 69.3258 35.981 70.9611 35.981ZM107.039 35.981C108.674 35.981 110 34.6465 110 33C110 31.3535 108.674 30.019 107.039 30.019C105.404 30.019 104.078 31.3535 104.078 33C104.078 34.6465 105.404 35.981 107.039 35.981Z" fill="white"/>
</svg>
