<?xml version="1.0" encoding="utf-8"?>
<!-- Generator: Adobe Illustrator 16.0.0, SVG Export Plug-In . SVG Version: 6.00 Build 0)  -->
<!DOCTYPE svg PUBLIC "-//W3C//DTD SVG 1.1//EN" "http://www.w3.org/Graphics/SVG/1.1/DTD/svg11.dtd">
<svg version="1.1" id="Layer_1" xmlns="http://www.w3.org/2000/svg" xmlns:xlink="http://www.w3.org/1999/xlink" x="0px" y="0px"
	 width="1000px" height="240.678px" viewBox="0 0 1000 240.678" enable-background="new 0 0 1000 240.678" xml:space="preserve">
<g>
	<path fill-rule="evenodd" clip-rule="evenodd" fill="#0000AE" d="M406.098,0H15.02C6.735,0,0,6.731,0,15.042v210.593
		c0,8.305,6.735,15.043,15.02,15.043h391.078c8.311,0,15.046-6.738,15.046-15.043V15.042C421.144,6.731,414.408,0,406.098,0"/>
	<path fill-rule="evenodd" clip-rule="evenodd" fill="#FFFFFF" d="M185.431,151.543c-2.309,1.698-7.18,0.966-8.547-0.94
		c-1.395-1.75-1.865-8.592-1.575-19.352c0.289-10.863,0.525-24.316,2.815-26.455c2.443-2.167,3.966-0.287,4.89,1.205
		c1.049,1.437,2.289,3.052,2.526,6.47c0.233,3.424,1.022,21.313,1.022,21.313S187.591,149.846,185.431,151.543"/>
	<path fill-rule="evenodd" clip-rule="evenodd" fill="#FFFFFF" d="M199.131,69.918c7.03-1.243,4.406,5.71,4.406,5.71
		c-5.402,11.253-17.638,11.729-24.578,10.433C183.481,79.217,192.958,70.854,199.131,69.918 M172.191,75.317
		c-1.908,3.16-1.997,5.049-1.112,6.354c2.202-3.422,6.176-8.818,12.062-12.933C178.596,69.141,174.768,71.174,172.191,75.317
		 M175.237,93.687c3.868,1.697,8.445,2.454,15.155,0.179c10.475-3.548,20.65-13.998,20.707-22.354
		c0.207-8.356-9.074-8.377-9.074-8.377h-0.27c-1.631-5.174-11.153-4.466-11.153-4.466c-19.519,1.59-25.938,15.35-26.889,18.96
		c-0.604,3.128-0.342,7.757,3.45,11.224c-1.105,3.003-0.191,4.342,0.125,5.069c0.345,1.016,2.029,4.098,3.95,3.918
		C172.531,97.633,173.553,96.716,175.237,93.687"/>
	<path fill-rule="evenodd" clip-rule="evenodd" fill="#FFFFFF" d="M239.23,108.252c-0.688,1.358-1.059,3.317-4.447,3.836
		c0,0-32.598,2.275-34.154,4.567c0,0-1.131,1.384,0.631,1.779c1.766,0.368,9.153,1.384,12.711,1.566
		c3.812,0.026,16.602,0.131,21.176,5.98c0,0,2.733,2.742,2.631,9.01c-0.135,6.398-1.267,8.67-3.684,10.995
		c-2.605,2.141-24.679,12.169-38.91-3.238c0,0-6.555-7.417,2.263-13.032c0,0,6.364-3.897,22.545,0.705c0,0,4.897,1.802,4.66,3.604
		c-0.263,1.934-4.003,3.996-9.479,3.84c-5.285-0.157-9.205-2.716-8.445-2.299c0.74,0.281-5.677-3.107-7.68-0.809
		c-1.973,2.115-1.5,3.446,0.418,4.753c4.953,2.847,24.08,1.827,29.756-4.57c0,0,2.266-2.612-1.157-4.754
		c-3.44-2.011-13.336-3.212-17.174-3.395c-3.684-0.209-17.345,0.053-19.338-3.63c0,0-1.974-2.455,0.18-9.535
		c2.293-7.358,18.233-10.208,25.15-10.864c0,0,18.95-0.672,22.442,3.245C239.329,106.007,239.783,106.914,239.23,108.252"/>
	<path fill-rule="evenodd" clip-rule="evenodd" fill="#FFFFFF" d="M278.907,142.52c-1.522,3.604-5.522,7.442-10.465,5.059
		c-4.897-2.396-12.711-18.587-12.711-18.587s-2.97-6.033-3.522-5.876c0,0-0.661-1.176-1.029,5.432
		c-0.418,6.556,0.079,19.353-2.526,21.362c-2.446,2.038-5.397,1.228-6.946-1.148c-1.395-2.325-1.973-7.835-1.214-17.549
		c0.898-9.716,3.135-20.061,5.976-23.296c2.841-3.189,5.134-0.861,6.028-0.026c0,0,3.786,3.497,10.077,13.763l1.105,1.881
		c0,0,5.676,9.715,6.282,9.688c0,0,0.48,0.444,0.898,0.104c0.579-0.156,0.342-3.265,0.342-3.265s-1.184-10.579-6.364-28.442
		c0,0-0.796-2.239-0.27-4.332c0.533-2.112,2.608-1.123,2.608-1.123s8.074,4.123,11.974,17.423
		C283.045,126.876,280.437,138.889,278.907,142.52"/>
	<path fill-rule="evenodd" clip-rule="evenodd" fill="#FFFFFF" d="M293.671,154.469c0,0-4.706,0.287-8.709-6.164
		c-3.709-6.137,1.395-17.784,1.395-17.784s-2.342-5.433-0.632-7.287c0,0,1.003-0.914,3.947-1.148l3.63-7.576
		c0,0-4.13,0.287-6.574-2.765c-2.263-2.922-2.479-4.261-0.713-5.07c1.865-0.937,19.019-4.097,30.806-3.701
		c0,0,4.111-0.396,7.66,6.809c0,0,1.71,2.902-1.214,3.604c-5.703,1.339-20.703,2.093-20.703,2.093l-1.894,6.006
		c0,0,7.498-0.653,12.947-0.079c0,0,1.783-0.208,2,2.038c0.046,2.089-0.19,4.309-0.19,4.309s-0.099,1.358-2.026,1.724
		c-2.049,0.34-16.151,0.889-16.151,0.889l-2.263,7.834c0,0-0.868,1.802,1.049,1.279c1.766-0.47,16.522-3.29,18.45-2.873
		c2.075,0.522,4.364,3.291,3.704,5.851C317.403,145.589,302.643,155.115,293.671,154.469"/>
	<path fill-rule="evenodd" clip-rule="evenodd" fill="#FFFFFF" d="M358.119,117.853c4.113-4.72,4.662-0.433,4.662-0.433
		c0.973,8.362-5.017,14.66-7.592,16.991c-1.575,1.526-6.806,4.501-12.196,5.117C348.141,129.346,354.565,121.87,358.119,117.853
		 M365.641,134.539c2.164-3.892,3.315-9.114,3.315-13.998c0-5.565-1.496-10.733-4.782-13.106
		c-9.768-6.875-25.528,14.882-32.444,25.669c-1.026-5.485,2.634-12.458,2.634-12.458s5.894-10.315,6.735-12.401
		c0.787-2.122,1.256-6.454,0.233-6.901c-0.895-0.414-2.5,0.97-2.5,0.97c-13.208,12.014-15.053,25.358-15.053,25.358
		c-1.233,7.156,0.217,12.195,2.371,15.715c-7.34,15.858-10.945,29.701-9.994,37.875c0.888,6.216,5.285,10.733,7.969,11.673
		c2.687,1.148,3.183-2.142,3.183-2.142c2.184-16.923,6.002-28.23,10.547-39.382C351.618,154.596,361.984,141.016,365.641,134.539"/>
	<path fill-rule="evenodd" clip-rule="evenodd" fill="#FFFFFF" d="M170.73,122.927c-0.737,9.715-4.426,26.063-30.557,34.106
		c-17.257,5.251-33.507,2.743-42.411,0.445c-0.208,3.577-0.58,5.092-1.159,5.72c-0.734,0.757-6.372,4.047-9.454-0.628
		c-1.396-2.193-2.111-6.241-2.503-9.767c-19.967-9.298-29.193-22.753-29.503-23.321c-0.451-0.444-5.011-5.25-0.451-11.174
		c4.268-5.331,18.255-10.659,30.87-12.823c0.428-10.894,1.686-19.123,3.217-22.881c1.788-4.384,4.08-0.447,6.112,2.507
		c1.659,2.194,2.664,11.7,2.736,19.303c8.222-0.395,13.125,0.235,22.289,1.907c11.982,2.19,19.967,8.383,19.279,15.404
		c-0.527,6.895-6.79,9.741-9.164,9.95c-2.503,0.209-6.372-1.594-6.372-1.594c-2.664-1.279-0.217-2.402,3-3.838
		c3.481-1.725,2.684-3.5,2.684-3.5c-1.288-3.816-16.833-6.528-32.295-6.528c-0.046,8.645,0.345,22.955,0.58,31.286
		c10.804,2.089,18.891,1.698,18.891,1.698s39.463-1.098,40.668-26.639c1.215-25.541-39.375-50.037-69.355-57.82
		c-29.977-7.962-46.915-2.398-48.367-1.646c-1.604,0.811-0.099,1.071-0.099,1.071s1.604,0.235,4.422,1.205
		c3,0.959,0.662,2.533,0.662,2.533c-5.084,1.615-10.856,0.594-11.963-1.754c-1.106-2.354,0.741-4.491,2.872-7.547
		c2.13-3.189,4.504-3.108,4.504-3.108c37.037-12.976,82.184,10.496,82.184,10.496C164.33,87.619,171.518,113.059,170.73,122.927
		 M57.726,126.68c7.858,8.562,17.57,13.936,26.775,17.254c1.088-14.777,0.923-19.967,1.011-27.417
		c-14.385,1.023-22.691,3.315-26.475,5.054C54.841,123.651,57.726,126.68,57.726,126.68"/>
	<path fill-rule="evenodd" clip-rule="evenodd" d="M449.09,86.828l10.42-2.87c2.86,5.312,8.867,8.188,17.049,8.188
		c9.105,0,14.006-2.876,14.006-8.188c0-13.377-38.925-1.224-38.925-25.73c0-10.019,10.63-16.763,24.094-16.763
		c10.624,0,21.354,5.317,24.836,13.377l-10.211,2.772c-2.457-4.294-8.179-6.735-14.421-6.735c-8.148,0-13.081,2.746-13.081,7.549
		c0,13.271,39.234,1.017,39.234,25.223c0,11.235-9.904,18.278-25.532,18.278C463.379,101.929,452.649,96.004,449.09,86.828"/>
	<path fill-rule="evenodd" clip-rule="evenodd" d="M518.163,77.527V51.279h-8.449V42.38h8.449V31.657l11.518-2.462V42.38h17.211
		v8.899h-17.211v24.934c0,12.057,3.146,16.241,12.012,16.241c1.118,0,2.444-0.203,4.681-0.513l1.534,8.897
		c-2.236,0.513-5.513,0.795-7.956,0.795C525.001,101.634,518.163,95.403,518.163,77.527"/>
	<path fill-rule="evenodd" clip-rule="evenodd" d="M561.099,43.274h11.512v9.833c2.243-6.245,8.396-11.962,20.618-10.235
		l-1.23,11.057c-13.124-2.469-19.388,4.602-19.388,18.922v28.97h-11.512V43.274z"/>
	<path fill-rule="evenodd" clip-rule="evenodd" d="M597.16,71.79c0-17.914,11.997-30.258,29.401-30.258
		c18.533,0,29.716,13.667,28.299,33.21h-46.307c0.42,11.319,7.429,17.738,18.717,17.738c8.163,0,13.44-2.751,16.302-8.353
		l10.474,1.628c-4.672,10.795-13.834,16.285-26.953,16.285C608.974,102.041,597.16,90.037,597.16,71.79z M644.176,65.784
		c-0.813-9.262-7.113-15.165-17.404-15.165c-9.759,0-16.591,5.089-17.902,15.165H644.176z"/>
	<path fill-rule="evenodd" clip-rule="evenodd" d="M666.477,71.812c0-20.137,12.251-30.364,26.775-30.364
		c9.176,0,17.36,4.513,20.704,12.582V42.574h11.448v58.404h-11.448V89.931c-3.264,7.867-11.528,12.451-20.624,12.451
		C678.834,102.382,666.477,92.058,666.477,71.812 M714.276,71.812c0-12.757-7.463-20.649-18.269-20.649
		c-10.727,0-18.083,7.786-18.083,20.649c0,12.998,7.356,20.756,18.271,20.756C706.92,92.567,714.276,84.704,714.276,71.812"/>
	<path fill-rule="evenodd" clip-rule="evenodd" d="M741.576,42.6h11.444v11.018c2.062-7.552,8.695-12.027,17.787-12.027
		c9.807,0,14.59,3.68,17.762,13.861c2.782-8.879,10.52-13.972,21.462-13.972c14.695,0,20.827,8.779,20.827,29.789v29.668h-11.443
		V72.169c0-14.875-3.887-20.79-13.586-20.79c-9.99,0-14.193,6.129-14.193,20.606v28.951H780.19V72.278
		c0-15.305-3.462-20.797-12.977-20.797c-9.885,0-14.193,6.64-14.193,21.624v27.831h-11.444V42.6z"/>
	<path fill-rule="evenodd" clip-rule="evenodd" d="M843.498,28.539c0-3.913,3.73-6.167,7.65-6.167c3.709,0,6.065,2.254,6.065,6.167
		c0,3.813-2.356,6.175-6.065,6.175C847.229,34.714,843.498,32.353,843.498,28.539z"/>
	<rect x="845.377" y="43.194" fill-rule="evenodd" clip-rule="evenodd" width="11.299" height="58.343"/>
	<path fill-rule="evenodd" clip-rule="evenodd" d="M873.78,42.496h11.445v10.635c2.657-7.248,9.287-11.651,19.075-11.651
		c16.127,0,23.574,9.313,23.574,27.789v31.668h-11.419V70.195c0-12.771-4.895-18.797-15.708-18.797
		c-11.024,0-15.522,7.256-15.522,20.137v29.401H873.78V42.496z"/>
	<path fill-rule="evenodd" clip-rule="evenodd" d="M942.413,105.698l10.848-2.656c2.866,6.013,9.215,9.915,17.169,9.915
		c11.571,0,18.106-5.739,18.106-20.347v-5.116c-3.268,8.705-11.544,12.056-20.651,12.056c-14.624,0-26.892-9.702-26.892-29.097
		c0-19.314,12.268-29.026,26.785-29.026c9.214,0,17.49,3.386,20.758,12.165V42.466H1000v48.308c0,21.87-10.339,31.27-29.678,31.27
		C956.636,122.043,946.404,116.101,942.413,105.698 M988.751,70.453c0-12.572-7.259-20.248-18.215-20.248
		c-10.848,0-18.105,7.676-18.105,20.248c0,12.758,7.258,20.32,18.214,20.32C981.492,90.773,988.751,83.104,988.751,70.453"/>
	<path fill-rule="evenodd" clip-rule="evenodd" d="M449.09,188.818l10.421-2.873c2.86,5.314,8.867,8.188,17.049,8.188
		c9.104,0,14.006-2.873,14.006-8.188c0-13.374-38.925-1.221-38.925-25.73c0-10.019,10.63-16.757,24.095-16.757
		c10.623,0,21.353,5.314,24.835,13.374l-10.211,2.766c-2.457-4.29-8.18-6.731-14.421-6.731c-8.147,0-13.081,2.746-13.081,7.545
		c0,13.279,39.234,1.023,39.234,25.223c0,11.244-9.904,18.288-25.532,18.288C463.38,203.922,452.65,197.998,449.09,188.818"/>
	<path fill-rule="evenodd" clip-rule="evenodd" d="M511.87,173.783c0-17.97,12.071-30.308,29.545-30.308
		c18.582,0,29.836,13.663,28.387,33.265h-46.493c0.422,11.342,7.459,17.765,18.818,17.765c8.171,0,13.469-2.752,16.342-8.359
		l10.517,1.631c-4.691,10.808-13.89,16.313-27.069,16.313C523.73,204.09,511.87,192.06,511.87,173.783z M559.075,167.768
		c-0.818-9.278-7.144-15.217-17.476-15.217c-9.805,0-16.656,5.098-17.975,15.217H559.075z"/>
	<path fill-rule="evenodd" clip-rule="evenodd" d="M583.577,145.247h11.457v9.831c2.186-6.032,8.111-11.559,19.463-10.362
		l-1.027,11.027c-12.483-1.939-18.436,5.102-18.436,19.105v28.963h-11.457V145.247z"/>
	<polygon fill-rule="evenodd" clip-rule="evenodd" points="656.397,203.158 644.954,203.158 619.366,144.473 631.854,144.473 
		650.677,190.552 669.499,144.473 682.199,144.473 	"/>
	<path fill-rule="evenodd" clip-rule="evenodd" d="M691.127,130.525c0-3.927,2.896-6.186,6.822-6.186
		c3.715,0,6.915,2.259,6.915,6.186c0,3.818-3.2,6.186-6.915,6.186C694.023,136.711,691.127,134.344,691.127,130.525z"/>
	<rect x="692.225" y="145.204" fill-rule="evenodd" clip-rule="evenodd" width="11.299" height="58.343"/>
	<path fill-rule="evenodd" clip-rule="evenodd" d="M718.043,173.799c0-17.688,12.06-30.347,28.918-30.347
		c14.705,0,23.489,6.737,27.173,20.034l-9.794,1.94c-2.864-8.295-8.294-12.275-16.86-12.275c-10.64,0-17.978,8.396-17.978,20.647
		c0,12.174,7.338,20.545,17.978,20.545c7.967,0,14.105-4.492,16.642-12.174l9.821,1.965c-3.165,12.558-12.985,20.01-26.981,20.01
		C730.103,204.145,718.043,191.485,718.043,173.799"/>
	<path fill-rule="evenodd" clip-rule="evenodd" d="M783,173.783c0-17.97,12.045-30.307,29.521-30.307
		c18.61,0,29.839,13.662,28.415,33.264h-46.497c0.422,11.343,7.459,17.765,18.794,17.765c8.197,0,13.496-2.752,16.369-8.359
		l10.517,1.631c-4.692,10.808-13.891,16.313-27.07,16.313C794.86,204.09,783,192.059,783,173.783z M830.208,167.768
		c-0.816-9.277-7.144-15.217-17.477-15.217c-9.805,0-16.658,5.098-17.977,15.217H830.208z"/>
	<path fill-rule="evenodd" clip-rule="evenodd" d="M850.29,188.818l10.415-2.873c2.861,5.314,8.894,8.188,17.065,8.188
		c9.107,0,13.999-2.873,13.999-8.188c0-13.374-38.928-1.221-38.928-25.73c0-10.019,10.622-16.757,24.104-16.757
		c10.622,0,21.346,5.314,24.825,13.374l-10.209,2.766c-2.448-4.29-8.172-6.731-14.409-6.731c-8.173,0-13.071,2.746-13.071,7.545
		c0,13.279,39.21,1.023,39.21,25.223c0,11.244-9.899,18.288-25.521,18.288C864.604,203.922,853.88,197.998,850.29,188.818"/>
</g>
</svg>
