<?xml version="1.0" encoding="UTF-8" standalone="no"?>
<svg
     xmlns:dc="http://purl.org/dc/elements/1.1/"
     xmlns:cc="http://creativecommons.org/ns#"
     xmlns:rdf="http://www.w3.org/1999/02/22-rdf-syntax-ns#"
     xmlns:svg="http://www.w3.org/2000/svg"
     xmlns="http://www.w3.org/2000/svg"
     version="1.1"
     id="svg4566"
     viewBox="0 0 500.00002 82.225105"
     height="82.225105"
     width="500">
    <defs
         id="defs4568">
        <clipPath
             id="clipPath3350"
             clipPathUnits="userSpaceOnUse">
            <path
                 id="path3352"
                 d="m 200.315,114.62 200.315,0 0,31.931 -200.315,0 0,-31.931 z" />
        </clipPath>
    </defs>
    <metadata
         id="metadata4571">
        <rdf:RDF>
            <cc:Work
                 rdf:about="">
                <dc:format>image/svg+xml</dc:format>
                <dc:type
                     rdf:resource="http://purl.org/dc/dcmitype/StillImage" />
                <dc:title></dc:title>
            </cc:Work>
        </rdf:RDF>
    </metadata>
    <g
         transform="translate(-70.628496,-411.4524)"
         id="layer1">
        <g
             id="g3346"
             transform="matrix(2.4860844,0,0,-2.4860844,-425.86902,777.13)">
            <g
                 clip-path="url(#clipPath3350)"
                 id="g3348">
                <g
                     style="fill:#181716;fill-opacity:1"
                     transform="matrix(0.99798684,0,0,0.99798684,255.27517,117.14893)"
                     id="g3354">
                    <path
                         id="path3356"
                         style="fill:#181716;fill-opacity:1;fill-rule:nonzero;stroke:none"
                         d="m 0,0 -0.579,0.352 c -0.363,0.222 -0.622,0.441 -0.774,0.656 -0.154,0.215 -0.233,0.462 -0.233,0.742 0,0.42 0.146,0.76 0.438,1.023 0.289,0.262 0.666,0.394 1.132,0.394 0.444,0 0.85,-0.127 1.223,-0.377 l 0,-0.86 C 0.823,2.296 0.411,2.479 -0.03,2.479 c -0.248,0 -0.452,-0.057 -0.612,-0.172 -0.16,-0.115 -0.24,-0.262 -0.24,-0.441 0,-0.16 0.06,-0.309 0.178,-0.447 0.118,-0.139 0.307,-0.286 0.569,-0.439 l 0.58,-0.346 c 0.645,-0.39 0.969,-0.884 0.969,-1.486 0,-0.426 -0.141,-0.774 -0.427,-1.041 -0.285,-0.267 -0.657,-0.4 -1.113,-0.4 -0.524,0 -1.002,0.163 -1.434,0.489 l 0,0.965 c 0.412,-0.524 0.886,-0.785 1.428,-0.785 0.238,0 0.437,0.067 0.596,0.2 0.158,0.133 0.238,0.3 0.238,0.502 C 0.702,-0.598 0.466,-0.29 0,0" />
                </g>
                <g
                     style="fill:#181716;fill-opacity:1"
                     transform="matrix(0.99798684,0,0,0.99798684,265.15424,120.23067)"
                     id="g3358">
                    <path
                         id="path3360"
                         style="fill:#181716;fill-opacity:1;fill-rule:nonzero;stroke:none"
                         d="m 0,0 0.76,0 -2.146,-5.347 -0.176,0 -1.733,4.33 -1.755,-4.33 -0.18,0 L -7.361,0 -6.593,0 -5.131,-3.67 -3.651,0 -2.923,0 -1.453,-3.67 0,0 Z" />
                </g>
                <path
                     id="path3362"
                     style="fill:#181716;fill-opacity:1;fill-rule:nonzero;stroke:none"
                     d="m 267.38174,120.23067 0.76344,0 0,-5.31027 -0.76344,0 0,5.31027 z" />
                <g
                     style="fill:#181716;fill-opacity:1"
                     transform="matrix(0.99798684,0,0,0.99798684,271.51343,117.14893)"
                     id="g3364">
                    <path
                         id="path3366"
                         style="fill:#181716;fill-opacity:1;fill-rule:nonzero;stroke:none"
                         d="m 0,0 -0.578,0.352 c -0.363,0.222 -0.623,0.441 -0.776,0.656 -0.153,0.215 -0.229,0.462 -0.229,0.742 0,0.42 0.143,0.76 0.435,1.023 0.29,0.262 0.668,0.394 1.132,0.394 0.445,0 0.851,-0.127 1.223,-0.377 l 0,-0.86 C 0.823,2.296 0.413,2.479 -0.029,2.479 -0.278,2.479 -0.481,2.422 -0.641,2.307 -0.801,2.192 -0.88,2.045 -0.88,1.866 c 0,-0.16 0.058,-0.309 0.176,-0.447 0.12,-0.139 0.309,-0.286 0.569,-0.439 l 0.58,-0.346 c 0.646,-0.39 0.97,-0.884 0.97,-1.486 0,-0.426 -0.142,-0.774 -0.427,-1.041 -0.286,-0.267 -0.657,-0.4 -1.113,-0.4 -0.523,0 -1.002,0.163 -1.433,0.489 l 0,0.965 c 0.411,-0.524 0.887,-0.785 1.427,-0.785 0.238,0 0.437,0.067 0.595,0.2 0.159,0.133 0.238,0.3 0.238,0.502 C 0.702,-0.598 0.468,-0.29 0,0" />
                </g>
                <g
                     style="fill:#181716;fill-opacity:1"
                     transform="matrix(0.99798684,0,0,0.99798684,275.95047,117.14893)"
                     id="g3368">
                    <path
                         id="path3370"
                         style="fill:#181716;fill-opacity:1;fill-rule:nonzero;stroke:none"
                         d="m 0,0 -0.578,0.352 c -0.365,0.222 -0.623,0.441 -0.776,0.656 -0.153,0.215 -0.23,0.462 -0.23,0.742 0,0.42 0.145,0.76 0.435,1.023 0.291,0.262 0.668,0.394 1.133,0.394 0.444,0 0.852,-0.127 1.221,-0.377 l 0,-0.86 C 0.823,2.296 0.413,2.479 -0.029,2.479 -0.277,2.479 -0.482,2.422 -0.642,2.307 -0.8,2.192 -0.881,2.045 -0.881,1.866 -0.881,1.706 -0.82,1.557 -0.703,1.419 -0.584,1.28 -0.395,1.133 -0.135,0.98 L 0.444,0.634 c 0.648,-0.39 0.97,-0.884 0.97,-1.486 0,-0.426 -0.142,-0.774 -0.427,-1.041 -0.286,-0.267 -0.656,-0.4 -1.111,-0.4 -0.526,0 -1.003,0.163 -1.435,0.489 l 0,0.965 c 0.411,-0.524 0.887,-0.785 1.428,-0.785 0.238,0 0.436,0.067 0.595,0.2 0.159,0.133 0.237,0.3 0.237,0.502 C 0.701,-0.598 0.468,-0.29 0,0" />
                </g>
                <g
                     style="fill:#181716;fill-opacity:1"
                     transform="matrix(0.99798684,0,0,0.99798684,284.92038,117.16786)"
                     id="g3372">
                    <path
                         id="path3374"
                         style="fill:#181716;fill-opacity:1;fill-rule:nonzero;stroke:none"
                         d="M 0,0 -0.864,1.925 -1.667,0 0,0 Z m -1.126,3.095 0.535,0 2.383,-5.346 -0.779,0 -0.708,1.573 -2.266,0 -0.664,-1.573 -0.782,0 2.281,5.346 z" />
                </g>
                <g
                     style="fill:#181716;fill-opacity:1"
                     transform="matrix(0.99798684,0,0,0.99798684,290.89929,120.23067)"
                     id="g3376">
                    <path
                         id="path3378"
                         style="fill:#181716;fill-opacity:1;fill-rule:nonzero;stroke:none"
                         d="m 0,0 0.766,0 -2.254,-5.347 -0.178,0 L -3.946,0 -3.181,0 -1.587,-3.74 0,0 Z" />
                </g>
                <g
                     style="fill:#181716;fill-opacity:1"
                     transform="matrix(0.99798684,0,0,0.99798684,295.31237,117.16786)"
                     id="g3380">
                    <path
                         id="path3382"
                         style="fill:#181716;fill-opacity:1;fill-rule:nonzero;stroke:none"
                         d="M 0,0 -0.864,1.925 -1.666,0 0,0 Z m -1.127,3.095 0.535,0 2.384,-5.346 -0.782,0 -0.706,1.573 -2.267,0 -0.662,-1.573 -0.783,0 2.281,5.346 z" />
                </g>
                <g
                     style="fill:#181716;fill-opacity:1"
                     transform="matrix(0.99798684,0,0,0.99798684,302.77234,120.23067)"
                     id="g3384">
                    <path
                         id="path3386"
                         style="fill:#181716;fill-opacity:1;fill-rule:nonzero;stroke:none"
                         d="m 0,0 0.721,0 0,-5.321 -0.651,0 -3.556,4.098 0,-4.098 -0.712,0 0,5.321 0.614,0 L 0,-4.133 0,0 Z" />
                </g>
                <g
                     style="fill:#181716;fill-opacity:1"
                     transform="matrix(0.99798684,0,0,0.99798684,305.05474,120.23067)"
                     id="g3388">
                    <path
                         id="path3390"
                         style="fill:#181716;fill-opacity:1;fill-rule:nonzero;stroke:none"
                         d="m 0,0 4.443,0 0,-0.678 -1.852,0 0,-4.643 -0.767,0 0,4.643 L 0,-0.678 0,0 Z" />
                </g>
                <path
                     id="path3392"
                     style="fill:#181716;fill-opacity:1;fill-rule:nonzero;stroke:none"
                     d="m 309.48781,117.01218 1.89118,0 0,-0.73753 -1.89118,0 0,0.73753 z" />
                <g
                     style="fill:#181716;fill-opacity:1"
                     transform="matrix(0.99798684,0,0,0.99798684,316.01662,117.54111)"
                     id="g3394">
                    <path
                         id="path3396"
                         style="fill:#181716;fill-opacity:1;fill-rule:nonzero;stroke:none"
                         d="m 0,0 1.792,0 0,-2.261 c -0.655,-0.284 -1.305,-0.425 -1.95,-0.425 -0.88,0 -1.584,0.257 -2.111,0.772 -0.527,0.516 -0.79,1.151 -0.79,1.906 0,0.796 0.273,1.459 0.819,1.988 0.546,0.529 1.231,0.794 2.053,0.794 0.301,0 0.584,-0.033 0.853,-0.1 0.27,-0.065 0.61,-0.187 1.021,-0.363 l 0,-0.773 C 1.053,1.909 0.423,2.095 -0.201,2.095 -0.783,2.095 -1.273,1.896 -1.67,1.5 -2.069,1.102 -2.268,0.614 -2.268,0.037 c 0,-0.607 0.199,-1.102 0.597,-1.486 0.397,-0.384 0.909,-0.576 1.536,-0.576 0.304,0 0.667,0.069 1.09,0.209 l 0.072,0.023 0,1.114 L 0,-0.679 0,0 Z" />
                </g>
                <g
                     style="fill:#181716;fill-opacity:1"
                     transform="matrix(0.99798684,0,0,0.99798684,322.28697,117.16786)"
                     id="g3398">
                    <path
                         id="path3400"
                         style="fill:#181716;fill-opacity:1;fill-rule:nonzero;stroke:none"
                         d="M 0,0 -0.864,1.925 -1.667,0 0,0 Z m -1.126,3.095 0.535,0 2.384,-5.346 -0.781,0 -0.708,1.573 -2.266,0 -0.663,-1.573 -0.782,0 2.281,5.346 z" />
                </g>
                <g
                     style="fill:#181716;fill-opacity:1"
                     transform="matrix(0.99798684,0,0,0.99798684,326.237,119.58897)"
                     id="g3402">
                    <path
                         id="path3404"
                         style="fill:#181716;fill-opacity:1;fill-rule:nonzero;stroke:none"
                         d="m 0,0 -0.227,0 0,-1.687 0.288,0 c 0.383,0 0.648,0.033 0.789,0.1 0.143,0.066 0.255,0.167 0.334,0.301 0.08,0.133 0.12,0.285 0.12,0.457 0,0.166 -0.045,0.319 -0.133,0.457 C 1.083,-0.237 0.957,-0.141 0.798,-0.084 0.637,-0.028 0.371,0 0,0 m -0.993,-4.677 0,5.32 1.331,0 c 0.539,0 0.967,-0.133 1.283,-0.4 C 1.936,-0.024 2.093,-0.384 2.093,-0.84 2.093,-1.15 2.016,-1.419 1.86,-1.644 1.705,-1.87 1.483,-2.041 1.193,-2.151 1.364,-2.263 1.532,-2.415 1.697,-2.608 1.86,-2.801 2.089,-3.137 2.384,-3.616 2.569,-3.919 2.718,-4.145 2.829,-4.297 l 0.283,-0.38 -0.906,0 -0.233,0.35 C 1.966,-4.315 1.95,-4.293 1.928,-4.263 L 1.779,-4.054 1.543,-3.666 1.29,-3.251 c -0.159,0.219 -0.304,0.393 -0.433,0.521 -0.133,0.129 -0.249,0.223 -0.355,0.28 -0.105,0.056 -0.283,0.085 -0.531,0.085 l -0.198,0 0,-2.312 -0.766,0 z" />
                </g>
                <g
                     style="fill:#181716;fill-opacity:1"
                     transform="matrix(0.99798684,0,0,0.99798684,332.19899,119.55403)"
                     id="g3406">
                    <path
                         id="path3408"
                         style="fill:#181716;fill-opacity:1;fill-rule:nonzero;stroke:none"
                         d="m 0,0 -0.954,0 0,-3.964 0.977,0 c 0.384,0 0.679,0.025 0.889,0.078 0.212,0.052 0.389,0.118 0.529,0.198 0.141,0.08 0.27,0.179 0.387,0.296 0.378,0.382 0.566,0.864 0.566,1.446 0,0.572 -0.194,1.039 -0.58,1.4 C 1.671,-0.411 1.509,-0.3 1.323,-0.214 1.137,-0.127 0.963,-0.07 0.798,-0.042 0.633,-0.014 0.367,0 0,0 m -1.717,-4.643 0,5.321 1.797,0 c 0.726,0 1.3,-0.108 1.723,-0.326 0.422,-0.217 0.758,-0.537 1.007,-0.96 0.25,-0.421 0.376,-0.882 0.376,-1.38 0,-0.356 -0.07,-0.698 -0.208,-1.022 C 2.84,-3.336 2.645,-3.622 2.391,-3.869 2.131,-4.123 1.829,-4.315 1.485,-4.445 1.285,-4.523 1.099,-4.576 0.932,-4.602 0.763,-4.63 0.442,-4.643 -0.03,-4.643 l -1.687,0 z" />
                </g>
                <g
                     style="fill:#181716;fill-opacity:1"
                     transform="matrix(0.99798684,0,0,0.99798684,337.19389,120.23067)"
                     id="g3410">
                    <path
                         id="path3412"
                         style="fill:#181716;fill-opacity:1;fill-rule:nonzero;stroke:none"
                         d="m 0,0 3.016,0 0,-0.678 -2.253,0 0,-1.626 2.175,0 0,-0.678 -2.175,0 0,-1.66 2.323,0 0,-0.679 L 0,-5.321 0,0 Z" />
                </g>
                <g
                     style="fill:#181716;fill-opacity:1"
                     transform="matrix(0.99798684,0,0,0.99798684,346.31449,117.14893)"
                     id="g3414">
                    <path
                         id="path3416"
                         style="fill:#181716;fill-opacity:1;fill-rule:nonzero;stroke:none"
                         d="m 0,0 -0.58,0.352 c -0.363,0.222 -0.621,0.441 -0.776,0.656 -0.153,0.215 -0.23,0.462 -0.23,0.742 0,0.42 0.147,0.76 0.437,1.023 0.29,0.262 0.668,0.394 1.132,0.394 0.444,0 0.852,-0.127 1.223,-0.377 l 0,-0.86 C 0.823,2.296 0.412,2.479 -0.03,2.479 c -0.248,0 -0.452,-0.057 -0.612,-0.172 -0.16,-0.115 -0.239,-0.262 -0.239,-0.441 0,-0.16 0.058,-0.309 0.178,-0.447 C -0.586,1.28 -0.398,1.133 -0.135,0.98 L 0.444,0.634 c 0.647,-0.39 0.97,-0.884 0.97,-1.486 0,-0.426 -0.142,-0.774 -0.428,-1.041 -0.285,-0.267 -0.656,-0.4 -1.112,-0.4 -0.525,0 -1.002,0.163 -1.434,0.489 l 0,0.965 c 0.412,-0.524 0.887,-0.785 1.428,-0.785 0.237,0 0.436,0.067 0.596,0.2 0.159,0.133 0.237,0.3 0.237,0.502 C 0.701,-0.598 0.468,-0.29 0,0" />
                </g>
                <path
                     id="path3418"
                     style="fill:#181716;fill-opacity:1;fill-rule:nonzero;stroke:none"
                     d="m 349.43724,120.23067 0.76443,0 0,-5.31027 -0.76443,0 0,5.31027 z" />
                <g
                     style="fill:#181716;fill-opacity:1"
                     transform="matrix(0.99798684,0,0,0.99798684,356.46504,120.23067)"
                     id="g3420">
                    <path
                         id="path3422"
                         style="fill:#181716;fill-opacity:1;fill-rule:nonzero;stroke:none"
                         d="m 0,0 0.72,0 0,-5.321 -0.652,0 -3.556,4.098 0,-4.098 -0.712,0 L -4.2,0 -3.586,0 0,-4.133 0,0 Z" />
                </g>
                <g
                     style="fill:#181716;fill-opacity:1"
                     transform="matrix(0.99798684,0,0,0.99798684,363.77827,116.15291)"
                     id="g3424">
                    <path
                         id="path3426"
                         style="fill:#181716;fill-opacity:1;fill-rule:nonzero;stroke:none"
                         d="m 0,0 0,-0.835 c -0.558,-0.307 -1.203,-0.46 -1.935,-0.46 -0.594,0 -1.098,0.119 -1.51,0.359 -0.414,0.239 -0.741,0.568 -0.982,0.988 -0.242,0.419 -0.362,0.873 -0.362,1.362 0,0.775 0.275,1.428 0.827,1.957 0.551,0.529 1.232,0.794 2.04,0.794 0.559,0 1.179,-0.146 1.862,-0.435 l 0,-0.818 C -0.681,3.266 -1.288,3.443 -1.881,3.443 -2.489,3.443 -2.996,3.25 -3.396,2.865 -3.798,2.48 -3.999,1.997 -3.999,1.416 c 0,-0.584 0.198,-1.066 0.594,-1.441 0.395,-0.378 0.901,-0.566 1.518,-0.566 0.644,0 1.274,0.197 1.887,0.591" />
                </g>
                <g
                     style="fill:#181716;fill-opacity:1"
                     transform="matrix(0.99798684,0,0,0.99798684,365.58161,120.23067)"
                     id="g3428">
                    <path
                         id="path3430"
                         style="fill:#181716;fill-opacity:1;fill-rule:nonzero;stroke:none"
                         d="m 0,0 3.016,0 0,-0.678 -2.25,0 0,-1.626 2.172,0 0,-0.678 -2.172,0 0,-1.66 2.32,0 0,-0.679 L 0,-5.321 0,0 Z" />
                </g>
                <path
                     id="path3432"
                     style="fill:#181716;fill-opacity:1;fill-rule:nonzero;stroke:none"
                     d="m 374.36894,120.23067 0.76345,0 0,-5.31027 -0.76345,0 0,5.31027 z" />
                <g
                     style="fill:#181716;fill-opacity:1"
                     transform="matrix(0.99798684,0,0,0.99798684,380.37382,118.79059)"
                     id="g3434">
                    <path
                         id="path3436"
                         style="fill:#181716;fill-opacity:1;fill-rule:nonzero;stroke:none"
                         d="M 0,0 C 0,0.233 -0.08,0.424 -0.239,0.575 -0.398,0.725 -0.6,0.801 -0.844,0.801 -1.09,0.801 -1.292,0.726 -1.451,0.579 -1.608,0.43 -1.686,0.24 -1.686,0.008 c 0,-0.221 0.082,-0.412 0.249,-0.571 0.167,-0.157 0.367,-0.236 0.6,-0.236 0.233,0 0.429,0.078 0.592,0.235 C -0.081,-0.407 0,-0.219 0,0 m 0.069,-2.446 0,0.076 c 0,0.245 -0.087,0.445 -0.262,0.599 -0.174,0.155 -0.401,0.233 -0.68,0.233 -0.273,0 -0.496,-0.079 -0.668,-0.234 -0.172,-0.157 -0.26,-0.358 -0.26,-0.605 0,-0.248 0.089,-0.45 0.266,-0.605 0.176,-0.157 0.403,-0.235 0.684,-0.235 0.269,0 0.49,0.072 0.662,0.215 0.173,0.143 0.258,0.328 0.258,0.556 m -2.513,2.471 c 0,0.417 0.157,0.769 0.469,1.061 0.312,0.29 0.695,0.436 1.146,0.436 0.446,0 0.82,-0.144 1.125,-0.432 0.308,-0.288 0.459,-0.643 0.459,-1.065 0,-0.474 -0.219,-0.867 -0.66,-1.176 0.493,-0.286 0.739,-0.707 0.739,-1.261 0,-0.442 -0.159,-0.806 -0.48,-1.094 -0.32,-0.288 -0.724,-0.431 -1.212,-0.431 -0.482,0 -0.889,0.146 -1.216,0.44 -0.327,0.295 -0.49,0.659 -0.49,1.093 0,0.541 0.249,0.959 0.75,1.253 -0.224,0.183 -0.386,0.365 -0.483,0.547 -0.097,0.18 -0.147,0.391 -0.147,0.629" />
                </g>
                <g
                     style="fill:#181716;fill-opacity:1"
                     transform="matrix(0.99798684,0,0,0.99798684,383.46059,116.98521)"
                     id="g3438">
                    <path
                         id="path3440"
                         style="fill:#181716;fill-opacity:1;fill-rule:nonzero;stroke:none"
                         d="m 0,0 c -0.022,-0.12 -0.032,-0.252 -0.032,-0.399 0,-0.3 0.086,-0.545 0.262,-0.737 0.174,-0.194 0.397,-0.289 0.668,-0.289 0.245,0 0.447,0.082 0.606,0.247 0.158,0.164 0.237,0.372 0.237,0.623 0,0.256 -0.084,0.464 -0.252,0.621 C 1.318,0.224 1.095,0.305 0.818,0.305 0.676,0.305 0.548,0.283 0.433,0.239 0.317,0.196 0.171,0.117 0,0 M 1.257,3.277 1.333,3.33 1.794,2.747 C 1.387,2.484 1.05,2.198 0.782,1.886 0.514,1.574 0.308,1.209 0.162,0.788 c 0.282,0.147 0.564,0.221 0.843,0.221 0.42,0 0.773,-0.149 1.061,-0.446 0.288,-0.298 0.431,-0.662 0.431,-1.094 0,-0.446 -0.156,-0.823 -0.469,-1.134 -0.312,-0.31 -0.692,-0.464 -1.138,-0.464 -0.502,0 -0.907,0.176 -1.215,0.527 -0.309,0.353 -0.463,0.814 -0.463,1.384 0,0.426 0.079,0.852 0.239,1.275 0.158,0.424 0.387,0.821 0.684,1.191 0.298,0.37 0.672,0.713 1.122,1.029" />
                </g>
                <g
                     style="fill:#181716;fill-opacity:1"
                     transform="matrix(0.99798684,0,0,0.99798684,389.07624,119.58897)"
                     id="g3442">
                    <path
                         id="path3444"
                         style="fill:#181716;fill-opacity:1;fill-rule:nonzero;stroke:none"
                         d="m 0,0 -0.037,0 c -0.292,0 -0.525,-0.18 -0.695,-0.54 -0.172,-0.36 -0.257,-0.847 -0.257,-1.463 0,-0.631 0.084,-1.126 0.251,-1.484 0.167,-0.359 0.398,-0.538 0.693,-0.538 0.294,0 0.525,0.179 0.695,0.538 0.172,0.358 0.256,0.846 0.256,1.462 0,0.617 -0.082,1.11 -0.246,1.477 C 0.497,-0.183 0.277,0 0,0 m -0.006,0.722 c 0.486,0 0.89,-0.257 1.208,-0.769 C 1.52,-0.56 1.679,-1.21 1.679,-1.999 1.679,-2.807 1.52,-3.464 1.202,-3.971 0.884,-4.477 0.471,-4.73 -0.036,-4.73 c -0.516,0 -0.93,0.248 -1.242,0.744 -0.311,0.496 -0.467,1.154 -0.467,1.973 0,0.808 0.161,1.466 0.482,1.974 0.324,0.507 0.742,0.761 1.257,0.761" />
                </g>
                <g
                     style="fill:#181716;fill-opacity:1"
                     transform="matrix(0.99798684,0,0,0.99798684,306.98785,126.71461)"
                     id="g3446">
                    <path
                         id="path3448"
                         style="fill:#181716;fill-opacity:1;fill-rule:nonzero;stroke:none"
                         d="m 0,0 c -3.892,-0.873 -8.898,-1.132 -12.511,0.533 -3.084,1.351 -4.991,4.574 -5.383,7.728 -0.41,3.872 1.048,7.265 4.144,9.544 3.622,2.59 9.361,2.505 13.305,0.703 l 0,-3.94 c -2.984,1.37 -7.473,2.176 -10.335,0 -2.057,-1.579 -2.694,-4.08 -2.179,-6.583 0.414,-1.97 2.108,-3.752 3.995,-4.403 1.338,-0.427 2.98,-0.566 4.47,-0.378 l 0,3.212 -1.968,-0.005 0,3.87 6.459,0 L -0.003,0 0,0 Z" />
                </g>
                <g
                     style="fill:#181716;fill-opacity:1"
                     transform="matrix(0.99798684,0,0,0.99798684,259.33494,126.46109)"
                     id="g3450">
                    <path
                         id="path3452"
                         style="fill:#181716;fill-opacity:1;fill-rule:nonzero;stroke:none"
                         d="m 0,0 0,16.095 7.147,0 0,3.764 -19.365,0 0,-3.764 7.145,0 L -5.073,0 0,0 Z" />
                </g>
                <g
                     style="fill:#181716;fill-opacity:1"
                     transform="matrix(0.99798684,0,0,0.99798684,279.40049,146.28113)"
                     id="g3454">
                    <path
                         id="path3456"
                         style="fill:#181716;fill-opacity:1;fill-rule:nonzero;stroke:none"
                         d="m 0,0 -5.803,0 -8.141,-19.859 5.347,0 1.529,3.898 8.896,0 1.631,-3.898 5.345,0 L 0,0 Z m -5.668,-12.35 2.861,7.424 3.095,-7.424 -5.956,0 z" />
                </g>
                <g
                     style="fill:#181716;fill-opacity:1"
                     transform="matrix(0.99798684,0,0,0.99798684,326.45658,137.74036)"
                     id="g3458">
                    <path
                         id="path3460"
                         style="fill:#181716;fill-opacity:1;fill-rule:nonzero;stroke:none"
                         d="m 0,0 -11.276,0 10e-4,8.553 -3.026,0 0,-19.858 3.026,0 -10e-4,8.63 11.276,0 -0.01,-8.63 3.034,0 0,19.858 -3.034,0 L 0,0 Z" />
                </g>
                <g
                     style="fill:#181716;fill-opacity:1"
                     transform="matrix(0.99798684,0,0,0.99798684,362.85015,132.04486)"
                     id="g3462">
                    <path
                         id="path3464"
                         style="fill:#181716;fill-opacity:1;fill-rule:nonzero;stroke:none"
                         d="m 0,0 c -0.209,-0.514 -1.533,-3.364 -5.048,-3.364 -3.524,0 -4.05,2.727 -4.05,4.352 l 0,10.606 -3.023,0 -0.003,-10.195 c 0,-6.88 5.181,-7.414 6.768,-7.414 2.614,0 4.36,1.122 5.358,2.049 l -0.003,-1.639 3.033,0 0,17.199 -3.029,0 L 0,0 Z" />
                </g>
                <g
                     style="fill:#181716;fill-opacity:1"
                     transform="matrix(0.99798684,0,0,0.99798684,400.22676,141.80713)"
                     id="g3466">
                    <path
                         id="path3468"
                         style="fill:#181716;fill-opacity:1;fill-rule:nonzero;stroke:none"
                         d="m 0,0 c -0.079,0.088 -1.946,2.166 -4.361,2.166 -2.129,0 -4.203,-2.045 -5.393,-3.475 l 0.003,3.17 -3.032,0 0,-17.241 3.028,0 0.003,10.278 c 0.785,1.316 2.962,4.325 4.773,4.325 1.517,0 3.112,-1.713 3.128,-1.73 L 0,0 Z" />
                </g>
                <g
                     style="fill:#181716;fill-opacity:1"
                     transform="matrix(0.99798684,0,0,0.99798684,335.39952,137.73037)"
                     id="g3470">
                    <path
                         id="path3472"
                         style="fill:#181716;fill-opacity:1;fill-rule:nonzero;stroke:none"
                         d="M 0,0 C 0.773,2.422 2.505,3.392 4.732,3.392 8.348,3.392 9.36,1.214 9.636,0 L 0,0 Z m 4.741,6.252 c -4.74,0 -8.314,-3.534 -8.314,-8.916 0,-3.7 2.503,-9.013 9.219,-9.013 4.255,0 6.841,2.329 6.949,2.428 l 0.179,0.164 0,3.529 -0.937,-0.893 c -0.026,-0.025 -2.571,-2.417 -5.973,-2.417 -3.707,0 -6.295,2.16 -6.295,6.154 l 0,0.034 13.529,0 0,0.554 c 0,4.253 -2.616,8.376 -8.357,8.376" />
                </g>
                <g
                     style="fill:#181716;fill-opacity:1"
                     transform="matrix(0.99798684,0,0,0.99798684,371.9528,137.73037)"
                     id="g3474">
                    <path
                         id="path3476"
                         style="fill:#181716;fill-opacity:1;fill-rule:nonzero;stroke:none"
                         d="M 0,0 C 0.773,2.422 2.505,3.392 4.732,3.392 8.348,3.392 9.36,1.214 9.636,0 L 0,0 Z m 4.741,6.252 c -4.74,0 -8.314,-3.534 -8.314,-8.916 0,-3.7 2.503,-9.013 9.219,-9.013 4.255,0 6.841,2.329 6.949,2.428 l 0.179,0.164 0,3.529 -0.937,-0.893 c -0.026,-0.025 -2.571,-2.417 -5.973,-2.417 -3.707,0 -6.295,2.16 -6.295,6.154 l 0,0.034 13.529,0 0,0.554 c 0,4.253 -2.616,8.376 -8.357,8.376" />
                </g>
                <g
                     transform="matrix(0.99798684,0,0,0.99798684,200.315,125.09287)"
                     id="g3478">
                    <path
                         id="path3480"
                         style="fill:#181716;fill-opacity:1;fill-rule:evenodd;stroke:none"
                         d="m 0,0 -0.001,21.181 36.579,10e-4 0,-21.184 L 18.292,-10.495 0,0 Z" />
                </g>
                <g
                     transform="matrix(0.99798684,0,0,0.99798684,201.23718,145.3041)"
                     id="g3482">
                    <path
                         id="path3484"
                         style="fill:#ffffff;fill-opacity:1;fill-rule:nonzero;stroke:none"
                         d="m 0,0 -0.001,-19.711 17.352,-9.975 0.008,-0.005 0.025,0 17.32,9.97 0.018,0.009 0,19.701 L 0,0 Z" />
                </g>
                <g
                     transform="matrix(0.99798684,0,0,0.99798684,202.47265,144.14442)"
                     id="g3486">
                    <path
                         id="path3488"
                         style="fill:#268151;fill-opacity:1;fill-rule:evenodd;stroke:none"
                         d="m 0,0 0,-10.305 32.245,0 0,10.307 L 0,0 Z" />
                </g>
                <g
                     transform="matrix(0.99798684,0,0,0.99798684,202.47265,132.74344)"
                     id="g3490">
                    <path
                         id="path3492"
                         style="fill:#e3001e;fill-opacity:1;fill-rule:evenodd;stroke:none"
                         d="m 0,0 0,-6.507 16.13,-9.264 16.115,9.26 0,6.511 L 0,0 Z" />
                </g>
                <g
                     transform="matrix(0.99798684,0,0,0.99798684,221.19387,120.1149)"
                     id="g3494">
                    <path
                         id="path3496"
                         style="fill:#ffffff;fill-opacity:1;fill-rule:nonzero;stroke:none"
                         d="m 0,0 -0.001,11.408 c 0,0.033 -0.026,0.06 -0.059,0.06 l -1.163,0 c -0.033,0 -0.06,-0.027 -0.06,-0.06 l 0,-10.712 -1.347,-0.736 -1.352,0.736 0,10.712 c 0,0.033 -0.027,0.06 -0.06,0.06 l -1.163,0 c -0.016,0 -0.031,-0.007 -0.043,-0.018 -0.011,-0.011 -0.017,-0.026 -0.017,-0.042 L -5.265,0 c 0,-0.021 0.011,-0.041 0.03,-0.052 L -2.66,-1.53 c 0.018,-0.01 0.041,-0.01 0.06,0.001 l 2.57,1.477 C -0.012,-0.042 0,-0.022 0,0" />
                </g>
                <g
                     transform="matrix(0.99798684,0,0,0.99798684,214.05831,121.15882)"
                     id="g3498">
                    <path
                         id="path3500"
                         style="fill:#ffffff;fill-opacity:1;fill-rule:nonzero;stroke:none"
                         d="m 0,0 c 0.018,-0.011 0.038,-0.01 0.056,0 0.018,0.011 0.029,0.03 0.029,0.052 l 0,1.235 c 0,0.023 -0.012,0.044 -0.031,0.054 l -2.466,1.345 0,2.985 2.214,-0.565 c 0.018,0.001 0.043,0.027 0.043,0.061 l 0.001,1.219 c 0,0.023 -0.027,0.05 -0.057,0.057 l -2.201,0.488 0,2.37 2.441,0 c 0.031,0 0.057,0.027 0.057,0.06 l 0,1.001 c 0,0.033 -0.026,0.06 -0.057,0.06 l -3.622,0 c -0.031,0 -0.057,-0.027 -0.057,-0.06 l 0,-8.223 c 0,-0.022 0.011,-0.042 0.029,-0.053 L 0,0 Z" />
                </g>
                <g
                     transform="matrix(0.99798684,0,0,0.99798684,226.96826,123.43521)"
                     id="g3502">
                    <path
                         id="path3504"
                         style="fill:#ffffff;fill-opacity:1;fill-rule:nonzero;stroke:none"
                         d="m 0,0 0,1.115 c 0,0.021 -0.011,0.041 -0.029,0.052 -0.019,0.01 -0.041,0.01 -0.059,10e-4 l -2.419,-1.321 0,3.283 2.254,0.576 c 0.026,0.007 0.045,0.031 0.045,0.059 l 0,1.091 c 0,0.018 -0.009,0.035 -0.023,0.047 -0.011,0.008 -0.024,0.013 -0.037,0.013 l -2.239,-0.491 0,2.595 2.446,0 c 0.032,0 0.059,0.026 0.059,0.06 l 0,1.001 c 0,0.033 -0.027,0.06 -0.059,0.06 l -3.617,0 c -0.033,0 -0.06,-0.027 -0.06,-0.06 l 0,-10.162 c 0,-0.022 0.012,-0.042 0.03,-0.052 0.018,-0.011 0.042,-0.011 0.06,0 l 3.618,2.081 C -0.012,-0.042 0,-0.022 0,0" />
                </g>
                <g
                     transform="matrix(0.99798684,0,0,0.99798684,207.37078,125.00205)"
                     id="g3506">
                    <path
                         id="path3508"
                         style="fill:#ffffff;fill-opacity:1;fill-rule:nonzero;stroke:none"
                         d="m 0,0 0.999,-0.577 c 0.019,-0.011 0.041,-0.01 0.06,0 0.018,0.011 0.03,0.031 0.03,0.052 l 0,7.036 c 0,0.033 -0.028,0.06 -0.06,0.06 l -1,0 c -0.032,0 -0.059,-0.027 -0.059,-0.06 l 0,-2.481 -2.408,0.529 0,1.952 c 0,0.033 -0.026,0.06 -0.059,0.06 l -0.988,0 C -3.501,6.571 -3.516,6.564 -3.527,6.553 -3.538,6.542 -3.545,6.527 -3.545,6.511 l 10e-4,-4.449 c 0,-0.022 0.012,-0.042 0.03,-0.053 l 0.987,-0.561 c 0.018,-0.011 0.042,-0.01 0.059,0 0.019,0.011 0.03,0.031 0.03,0.052 l 0,2.04 2.408,-0.615 0,-2.873 C -0.03,0.03 -0.019,0.011 0,0" />
                </g>
                <g
                     transform="matrix(0.99798684,0,0,0.99798684,229.95724,130.44007)"
                     id="g3510">
                    <path
                         id="path3512"
                         style="fill:#ffffff;fill-opacity:1;fill-rule:nonzero;stroke:none"
                         d="m 0,0 2.097,0 c 0.094,0 0.17,-0.076 0.17,-0.17 l 0,-0.531 c 0,-0.122 -0.023,-0.188 -0.18,-0.225 L 0,-1.384 0,0 Z m -1.101,-5.932 c 0.018,-0.01 0.042,-0.01 0.061,0 l 1.033,0.586 C -0.003,-5.343 0,-5.339 0,-5.334 l 0,2.849 0.604,0.158 1.775,-1.588 c 0.017,-0.024 0.052,-0.032 0.078,-0.016 l 0.904,0.525 c 0.015,0.008 0.025,0.023 0.028,0.039 0.003,0.012 0.002,0.026 -0.003,0.037 l -1.552,1.317 1.098,0.279 C 3.297,-1.64 3.354,-1.47 3.35,-1.099 L 3.347,0.709 c -0.045,0.263 -0.236,0.413 -0.51,0.413 -0.015,0 -0.031,0 -0.039,-0.001 l -3.868,0 c -0.03,0 -0.061,-0.036 -0.061,-0.071 l 0.001,-6.93 c 0,-0.021 0.011,-0.041 0.029,-0.052" />
                </g>
                <g
                     transform="matrix(0.99798684,0,0,0.99798684,210.1462,135.15755)"
                     id="g3514">
                    <path
                         id="path3516"
                         style="fill:#ffffff;fill-opacity:1;fill-rule:evenodd;stroke:none"
                         d="m 0,0 0,6.112 3.347,0 0,1.628 -9.07,0 0,-1.628 3.347,0 L -2.376,0 0,0 Z" />
                </g>
                <g
                     transform="matrix(0.99798684,0,0,0.99798684,232.26457,135.30128)"
                     id="g3518">
                    <path
                         id="path3520"
                         style="fill:#ffffff;fill-opacity:1;fill-rule:evenodd;stroke:none"
                         d="m 0,0 c -1.822,-0.34 -4.166,-0.44 -5.859,0.207 -1.445,0.527 -2.336,1.782 -2.52,3.01 -0.193,1.508 0.489,2.829 1.942,3.717 1.694,1.008 4.382,0.974 6.228,0.274 l 0,-1.683 C -1.605,6.058 -3.708,6.52 -5.049,5.672 -6.012,5.059 -6.309,4.084 -6.068,3.11 -5.875,2.342 -5.081,1.648 -4.198,1.395 -3.572,1.228 -2.802,1.174 -2.104,1.248 l 0,1.251 -0.922,-0.003 0,1.507 3.024,0 L 0,0 Z" />
                </g>
                <g
                     transform="matrix(0.99798684,0,0,0.99798684,218.0742,140.96589)"
                     id="g3522">
                    <path
                         id="path3524"
                         style="fill:#ffffff;fill-opacity:1;fill-rule:evenodd;stroke:none"
                         d="m 0,0 -1.44,-2.725 2.789,0 L 0,0 Z m -2.095,-4.299 -0.8,-1.52 -2.422,0 3.933,7.739 2.717,0 4.005,-7.739 -2.428,0 -0.84,1.52 -4.165,0 z" />
                </g>
            </g>
        </g>
    </g>
</svg>
